<svg width="18" height="19" viewBox="0 0 18 19" fill="none" xmlns="http://www.w3.org/2000/svg">
<path fill-rule="evenodd" clip-rule="evenodd" d="M13 0.131348H5C2.23858 0.131348 0 2.36993 0 5.13135V13.1313C0 15.8927 2.23858 18.1313 5 18.1313H13C15.7614 18.1313 18 15.8927 18 13.1313V5.13135C18 2.36993 15.7614 0.131348 13 0.131348ZM16.25 13.1313C16.2445 14.9239 14.7926 16.3758 13 16.3813H5C3.20735 16.3758 1.75549 14.9239 1.75 13.1313V5.13135C1.75549 3.3387 3.20735 1.88684 5 1.88135H13C14.7926 1.88684 16.2445 3.3387 16.25 5.13135V13.1313ZM13.75 5.38135C14.3023 5.38135 14.75 4.93363 14.75 4.38135C14.75 3.82907 14.3023 3.38135 13.75 3.38135C13.1977 3.38135 12.75 3.82907 12.75 4.38135C12.75 4.93363 13.1977 5.38135 13.75 5.38135ZM9 4.63135C6.51472 4.63135 4.5 6.64607 4.5 9.13135C4.5 11.6166 6.51472 13.6313 9 13.6313C11.4853 13.6313 13.5 11.6166 13.5 9.13135C13.5027 7.93705 13.0294 6.79092 12.1849 5.94643C11.3404 5.10194 10.1943 4.62869 9 4.63135ZM6.25 9.13135C6.25 10.6501 7.4812 11.8813 9 11.8813C10.5188 11.8813 11.75 10.6501 11.75 9.13135C11.75 7.61255 10.5188 6.38135 9 6.38135C7.4812 6.38135 6.25 7.61255 6.25 9.13135Z" fill="white"/>
</svg>
